<svg width="90" height="50" viewBox="0 0 90 50" fill="none" xmlns="http://www.w3.org/2000/svg">
<path d="M2.58628 25.7593H8.62092V10.4164C8.62092 9.66496 8.64247 8.87868 8.68558 8.05761L5.12945 10.9174C4.89956 11.0984 4.66966 11.2306 4.43977 11.3141C4.20988 11.3836 3.98718 11.4184 3.77165 11.4184C3.39808 11.4184 3.06043 11.3419 2.75869 11.1888C2.47133 11.0218 2.25581 10.8479 2.11213 10.6669L0 7.95324L9.78474 0H15.3021V25.7593H20.4747V30.4352H2.58628V25.7593Z" fill="#8A7B60"/>
<path d="M36.9871 11.1679C38.1222 11.1679 39.2429 11.3489 40.3493 11.7107C41.4556 12.0725 42.447 12.6292 43.3235 13.3807C44.1999 14.1321 44.904 15.0854 45.4356 16.2405C45.9816 17.3816 46.2546 18.7315 46.2546 20.2902C46.2546 21.7096 45.9816 23.0595 45.4356 24.3398C44.8896 25.6062 44.1137 26.7196 43.108 27.6798C42.1166 28.6261 40.9168 29.3776 39.5087 29.9342C38.1006 30.4909 36.5417 30.7692 34.8319 30.7692C33.079 30.7692 31.5056 30.5048 30.1119 29.976C28.7182 29.4333 27.5328 28.6818 26.5558 27.7215C25.5931 26.7613 24.8532 25.6132 24.3359 24.2772C23.833 22.9412 23.5816 21.4731 23.5816 19.8727C23.5816 18.3558 23.8833 16.8458 24.4868 15.3429C25.0902 13.8399 25.9811 12.3091 27.1593 10.7504L34.2284 1.50297C34.5445 1.08548 35.0187 0.737571 35.6509 0.459241C36.2831 0.166997 37.0015 0.0208756 37.8061 0.0208756H43.7545L34.4439 10.7922C34.3003 10.9453 34.1566 11.1053 34.0129 11.2723C33.8836 11.4254 33.7543 11.5785 33.625 11.7316C34.1278 11.5506 34.6523 11.4115 35.1983 11.3141C35.7586 11.2166 36.3549 11.1679 36.9871 11.1679ZM30.0042 20.7494C30.0042 21.5009 30.0976 22.1758 30.2843 22.7742C30.4711 23.3726 30.7585 23.8876 31.1464 24.319C31.5344 24.7504 32.0229 25.0844 32.612 25.3209C33.2011 25.5436 33.8979 25.6549 34.7026 25.6549C35.3922 25.6549 36.0316 25.5297 36.6207 25.2792C37.2242 25.0287 37.7414 24.6877 38.1725 24.2563C38.6035 23.811 38.9412 23.2961 39.1854 22.7116C39.4441 22.1132 39.5734 21.4661 39.5734 20.7703C39.5734 19.991 39.4513 19.2951 39.207 18.6828C38.9771 18.0705 38.6466 17.5556 38.2156 17.1381C37.7845 16.7206 37.2601 16.4005 36.6423 16.1779C36.0388 15.9552 35.3635 15.8439 34.6164 15.8439C33.9411 15.8439 33.3232 15.9621 32.7629 16.1987C32.2025 16.4214 31.714 16.7484 31.2973 17.1798C30.895 17.6112 30.5789 18.1262 30.349 18.7246C30.1191 19.323 30.0042 19.9979 30.0042 20.7494Z" fill="#8A7B60"/>
<path d="M71 0.0208756V2.73458C71 3.49998 70.9138 4.11926 70.7414 4.59242C70.569 5.06558 70.4037 5.46916 70.2457 5.80315L59.2756 28.306C58.9882 28.9044 58.5643 29.4124 58.004 29.8299C57.4436 30.2334 56.7036 30.4352 55.7841 30.4352H50.9133L62.1205 8.66298C62.4222 8.06457 62.7455 7.52879 63.0903 7.05563C63.4495 6.58247 63.8375 6.13019 64.2541 5.69878H50.4391C50.238 5.69878 50.044 5.66399 49.8572 5.59441C49.6848 5.51091 49.5267 5.40653 49.383 5.28129C49.2537 5.14212 49.146 4.98904 49.0598 4.82204C48.9736 4.64113 48.9305 4.46022 48.9305 4.2793V0.0208756H71Z" fill="#8A7B60"/>
<path d="M5.60517 49.4619H4.298V44.8465H2.78355L2.71586 45.3601C2.54101 46.666 2.3859 47.5822 2.25053 48.1087C2.11798 48.6326 1.92479 49.0018 1.67098 49.2165C1.41998 49.4312 1.07168 49.5385 0.626087 49.5385C0.389189 49.5385 0.180494 49.5104 0 49.4542V48.4805C0.163572 48.5316 0.317274 48.5572 0.461105 48.5572C0.610576 48.5572 0.729025 48.4958 0.816451 48.3732C0.903878 48.2479 0.985664 48.0179 1.06181 47.6832C1.14078 47.3458 1.24371 46.7951 1.37062 46.031C1.50035 45.2643 1.61034 44.5398 1.70059 43.8575H5.60517V49.4619Z" fill="#0A3B93"/>
<path d="M10.7281 49.4619H7.16616V43.8575H10.7281V44.8311H8.47756V46.0616H10.5716V47.0353H8.47756V48.4805H10.7281V49.4619Z" fill="#0A3B93"/>
<path d="M14.4085 49.4619H13.0971V44.8465H11.4176V43.8575H16.0879V44.8465H14.4085V49.4619Z" fill="#0A3B93"/>
<path d="M23.7828 49.4619H22.4757V47.043H20.0263V49.4619H18.7149V43.8575H20.0263V46.054H22.4757V43.8575H23.7828V49.4619Z" fill="#0A3B93"/>
<path d="M29.1342 49.4619L28.6858 48.1278H26.431L25.9826 49.4619H24.5697L26.7525 43.8345H28.3558L30.5471 49.4619H29.1342ZM28.3727 47.1312C27.9582 45.9224 27.7241 45.2387 27.6705 45.0803C27.6197 44.9219 27.5831 44.7966 27.5605 44.7046C27.4674 45.0317 27.2009 45.8406 26.761 47.1312H28.3727Z" fill="#0A3B93"/>
<path d="M35.8815 48.4728H37.8021V43.8575H39.1093V49.4619H31.3297V43.8575H32.6411V48.4728H34.5617V43.8575H35.8815V48.4728Z" fill="#0A3B93"/>
<path d="M44.2322 49.4619H40.6703V43.8575H44.2322V44.8311H41.9817V46.0616H44.0757V47.0353H41.9817V48.4805H44.2322V49.4619Z" fill="#0A3B93"/>
<path d="M49.4355 43.8575V44.8388H46.8381V49.4619H45.5267V43.8575H49.4355Z" fill="#0A3B93"/>
<path d="M55.9206 46.652C55.9206 47.5797 55.6667 48.2927 55.1591 48.791C54.6515 49.2893 53.9239 49.5385 52.9763 49.5385C52.0287 49.5385 51.3011 49.2893 50.7934 48.791C50.2858 48.2927 50.032 47.5771 50.032 46.6443C50.032 45.7115 50.2858 44.9998 50.7934 44.5091C51.3039 44.0159 52.0343 43.7693 52.9847 43.7693C53.9351 43.7693 54.6613 44.0172 55.1633 44.513C55.6682 45.0087 55.9206 45.7218 55.9206 46.652ZM51.4068 46.652C51.4068 47.2781 51.538 47.7496 51.8002 48.0665C52.0625 48.3834 52.4545 48.5418 52.9763 48.5418C54.0226 48.5418 54.5457 47.9119 54.5457 46.652C54.5457 45.3895 54.0254 44.7583 52.9847 44.7583C52.463 44.7583 52.0696 44.918 51.8045 45.2375C51.5394 45.5544 51.4068 46.0259 51.4068 46.652Z" fill="#0A3B93"/>
<path d="M64.4912 46.652C64.4912 47.5797 64.2374 48.2927 63.7297 48.791C63.2221 49.2893 62.4945 49.5385 61.5469 49.5385C60.5993 49.5385 59.8717 49.2893 59.364 48.791C58.8564 48.2927 58.6026 47.5771 58.6026 46.6443C58.6026 45.7115 58.8564 44.9998 59.364 44.5091C59.8745 44.0159 60.6049 43.7693 61.5553 43.7693C62.5058 43.7693 63.232 44.0172 63.734 44.513C64.2388 45.0087 64.4912 45.7218 64.4912 46.652ZM59.9774 46.652C59.9774 47.2781 60.1086 47.7496 60.3709 48.0665C60.6331 48.3834 61.0251 48.5418 61.5469 48.5418C62.5932 48.5418 63.1163 47.9119 63.1163 46.652C63.1163 45.3895 62.596 44.7583 61.5553 44.7583C61.0336 44.7583 60.6402 44.918 60.3751 45.2375C60.11 45.5544 59.9774 46.0259 59.9774 46.652Z" fill="#0A3B93"/>
<path d="M70.6674 49.4619H69.3603V44.8465H67.0844V49.4619H65.773V43.8575H70.6674V49.4619Z" fill="#0A3B93"/>
<path d="M76.4588 47.71C76.4588 48.2927 76.2444 48.731 75.8157 49.0248C75.3899 49.3162 74.7582 49.4619 73.9206 49.4619H72.2284V43.8575H73.5398V46.008H73.9629C74.7553 46.008 75.3687 46.1575 75.8031 46.4565C76.2402 46.7529 76.4588 47.1708 76.4588 47.71ZM73.5398 48.4882H73.8825C74.314 48.4882 74.6298 48.4243 74.8301 48.2965C75.0303 48.1662 75.1304 47.9707 75.1304 47.71C75.1304 47.4493 75.0331 47.2628 74.8385 47.1503C74.6468 47.0379 74.3083 46.9817 73.8233 46.9817H73.5398V48.4882ZM78.5189 49.4619H77.2117V43.8575H78.5189V49.4619Z" fill="#0A3B93"/>
<path d="M82.4658 49.4619H81.1544V44.8465H79.475V43.8575H84.1452V44.8465H82.4658V49.4619Z" fill="#0A3B93"/>
<path d="M88.5871 49.4619L88.1387 48.1278H85.8839L85.4355 49.4619H84.0226L86.2054 43.8345H87.8087L90 49.4619H88.5871ZM87.8256 47.1312C87.411 45.9224 87.177 45.2387 87.1234 45.0803C87.0726 44.9219 87.036 44.7966 87.0134 44.7046C86.9203 45.0317 86.6538 45.8406 86.2139 47.1312H87.8256Z" fill="#0A3B93"/>
</svg>
